HIERARCHY
ROOT Hips
{
  OFFSET -35.2597 29.1586 114.425
  CHANNELS 6 Xposition Yposition Zposition Zrotation Xrotation Yrotation
  JOINT LeftUpLeg
  {
    OFFSET 8.64259 1.95398 -2.38835
    CHANNELS 3 Zrotation Xrotation Yrotation
    JOINT LeftLeg
    {
      OFFSET 43.7702 0 0
      CHANNELS 3 Zrotation Xrotation Yrotation
      JOINT LeftFoot
      {
        OFFSET 40.6238 0 0
        CHANNELS 3 Zrotation Xrotation Yrotation
        JOINT LeftToeBase
        {
          OFFSET 12.7242 0 0
          CHANNELS 3 Zrotation Xrotation Yrotation
          End Site
          {
            OFFSET 0 0 0
          }
        }
      }
    }
  }
  JOINT RightUpLeg
  {
    OFFSET -8.2249 1.95398 -2.59336
    CHANNELS 3 Zrotation Xrotation Yrotation
    JOINT RightLeg
    {
      OFFSET 43.5653 0 0
      CHANNELS 3 Zrotation Xrotation Yrotation
      JOINT RightFoot
      {
        OFFSET 40.6238 0 0
        CHANNELS 3 Zrotation Xrotation Yrotation
        JOINT RightToeBase
        {
          OFFSET 12.7242 0 0
          CHANNELS 3 Zrotation Xrotation Yrotation
          End Site
          {
            OFFSET 0 0 0
          }
        }
      }
    }
  }
  JOINT Spine
  {
    OFFSET 0.165834 0.87714 6.61349
    CHANNELS 3 Zrotation Xrotation Yrotation
    JOINT Spine1
    {
      OFFSET 7.38963 1.71661e-005 0
      CHANNELS 3 Zrotation Xrotation Yrotation
      JOINT Spine2
      {
        OFFSET 11.9445 1.14441e-005 0
        CHANNELS 3 Zrotation Xrotation Yrotation
        JOINT Spine3
        {
          OFFSET 14.7254 4.19617e-005 0
          CHANNELS 3 Zrotation Xrotation Yrotation
          JOINT Spine4
          {
            OFFSET 10.9679 0 0
            CHANNELS 3 Zrotation Xrotation Yrotation
            JOINT RightShoulder
            {
              OFFSET 2.46616 -1.6653 3.69651
              CHANNELS 3 Zrotation Xrotation Yrotation
              JOINT RightArm
              {
                OFFSET 13.0012 0 0
                CHANNELS 3 Zrotation Xrotation Yrotation
                JOINT RightForeArm
                {
                  OFFSET 28.7848 1.62311e-005 0
                  CHANNELS 3 Zrotation Xrotation Yrotation
                  JOINT RightHand
                  {
                    OFFSET 26.5688 1.62095e-005 0
                    CHANNELS 3 Zrotation Xrotation Yrotation
                    End Site
                    {
                      OFFSET 0 0 0
                    }
                  }
                }
              }
            }
            JOINT LeftShoulder
            {
              OFFSET 2.38034 -1.29275 -3.7523
              CHANNELS 3 Zrotation Xrotation Yrotation
              JOINT LeftArm
              {
                OFFSET 16.3182 6.07031e-005 0
                CHANNELS 3 Zrotation Xrotation Yrotation
                JOINT LeftForeArm
                {
                  OFFSET 27.0901 0 0
                  CHANNELS 3 Zrotation Xrotation Yrotation
                  JOINT LeftHand
                  {
                    OFFSET 24.5451 1.51738e-005 0
                    CHANNELS 3 Zrotation Xrotation Yrotation
                    End Site
                    {
                      OFFSET 0 0 0
                    }
                  }
                }
              }
            }
            JOINT Neck
            {
              OFFSET 5.0226 -0.0266342 0
              CHANNELS 3 Zrotation Xrotation Yrotation
              JOINT Head
              {
                OFFSET 6.69364 2.86102e-005 0
                CHANNELS 3 Zrotation Xrotation Yrotation
                End Site
                {
                  OFFSET 0 0 0
                }
              }
            }
          }
        }
      }
    }
  }
}
MOTION
Frames:	15
Frame Time:	0.0416667
30.1532 47.3998 -2.08024 -4.06053 -79.2129 -4.11822 -42.6571 59.9229 -10.3809 -134.748 24.7202 8.47805 96.3018 29.9205 0.459671 2.93184 -18.409 4.46354 57.1811 54.5188 -176.523 -134.364 -18.1112 -8.65031 94.5334 -31.098 -8.10981 13.5276 3.36128 7.41213 0.728696 12.2346 -90.4475 2.40803 1.28098 -0.851361 -9.26259 1.24227 -0.906928 -31.8021 1.47761 -0.426971 -11.7894 1.47761 -0.426968 86.3294 -21.7776 -118.458 4.94386 31.4533 -55.5019 -3.98822 -17.083 -4.92472 5.49411 -1.57869 -33.6417 -89.7806 -30.7559 73.9819 -16.9583 -18.6077 -85.138 2.34835 4.16874 -3.38678 -26.661 2.28791 -15.3955 34.4862 -0.459201 -0.829092 -4.51597 -0.0546319 -0.540344 
30.0972 46.7418 -1.68379 -5.73712 -80.3631 -5.73178 -43.4963 60.6083 -9.27926 -135.812 24.166 8.52746 97.8753 31.5532 1.01658 1.17528 -18.2647 2.9031 58.0951 54.5374 -177.594 -135.625 -17.9317 -8.78977 94.7433 -31.6739 -8.95843 12.9016 2.49152 9.876 0.732902 12.0731 -90.4355 2.73109 1.29303 -0.834085 -8.93954 1.25507 -0.890201 -31.4792 1.48392 -0.406853 -11.4665 1.48392 -0.40686 86.3596 -21.8157 -118.369 6.0877 30.3356 -55.4062 -4.02008 -17.8146 -4.93035 7.86038 -2.1193 -32.7336 -89.7821 -31.6986 74.2904 -17.7797 -17.1379 -83.5902 2.37981 5.64092 -3.41996 -28.0757 2.62139 -16.2248 34.9313 -0.771783 -0.784184 -4.38376 -0.367566 -0.485835 
30.0671 49.0427 -1.86869 -5.81313 -77.652 -6.02933 -45.0385 60.4803 -7.99881 -132.296 25.5729 8.16823 96.8079 31.0385 1.48765 1.50612 -18.2121 3.10731 57.7862 55.2785 -176.894 -132.328 -20.3245 -8.46924 92.8105 -29.6088 -8.07376 14.5627 2.92031 7.51428 0.739348 11.7046 -90.3281 3.46753 1.34629 -0.637417 -8.20289 1.31693 -0.696063 -30.7434 1.47561 -0.203262 -10.7308 1.47561 -0.203252 86.0779 -22.0833 -118.811 6.51771 29.887 -55.2325 -4.06877 -18.9238 -4.93962 7.02201 -1.89689 -32.5381 -89.8848 -31.9656 74.1852 -18.0606 -16.6479 -82.4384 2.38119 5.67994 -3.42483 -27.6134 2.73507 -16.9402 36.2099 -0.955968 -0.885114 -4.22022 -0.487873 -0.492984 
29.9852 54.2683 -2.47642 -4.15568 -71.9353 -4.75399 -48.2069 60.5157 -6.00976 -123.545 28.5478 6.51908 94.436 29.3879 2.07669 3.85929 -16.9886 3.59394 58.253 56.7642 -176.51 -123.906 -24.02 -6.88876 90.6906 -27.471 -7.39159 13.9098 2.823 8.30683 0.715951 11.2371 -90.2192 4.4017 1.34143 -0.44147 -7.26864 1.3207 -0.500111 -29.8094 1.41208 -0.0178308 -9.79668 1.41208 -0.0178318 86.4875 -22.1154 -117.907 7.83846 28.7965 -56.1435 -3.99786 -17.3069 -4.92629 5.99848 -1.66296 -32.8237 -89.869 -32.4407 74.3669 -18.1044 -16.5722 -82.3215 2.41026 7.14842 -3.43907 -27.013 2.77442 -17.4328 37.7143 -1.251 -1.07475 -4.35562 -0.669067 -0.269901 
29.7492 61.2624 -3.06561 -2.6087 -65.6 -3.02465 -52.9594 62.8759 -3.43158 -110.31 30.9111 2.47449 91.7593 26.839 1.98396 2.97388 -16.7007 2.55554 62.2452 59.3533 -179.144 -111.267 -28.6738 -3.04356 87.6205 -24.6365 -7.1351 14.1282 2.9727 7.77432 0.705938 10.7948 -90.1715 5.28605 1.33952 -0.364052 -6.38425 1.32219 -0.422663 -28.925 1.38698 0.0554359 -8.91231 1.38698 0.0554368 86.0835 -23.1835 -118.125 8.03442 28.579 -56.0147 -4.11735 -20.0141 -4.94972 5.461 -1.46819 -31.7184 -89.9965 -32.8583 74.2658 -18.1495 -16.498 -82.3548 2.54211 12.7566 -3.5803 -25.8208 2.91018 -18.7579 37.9879 -1.73938 -1.71021 -4.51007 -0.839554 0.0843297 
29.5316 68.9604 -2.94003 -2.00702 -58.862 -1.93784 -59.2887 66.3358 1.19279 -93.8079 33.5585 -4.34003 86.6837 22.3788 2.05183 6.37084 -15.5814 3.98539 69.1048 62.3737 174.702 -94.6112 -31.9617 3.8772 84.8281 -21.1845 -5.10859 12.9396 2.53157 9.75115 0.694155 10.322 -90.1558 6.23171 1.32091 -0.349456 -5.43862 1.30425 -0.407277 -27.9792 1.36486 0.0637707 -7.96653 1.36486 0.0637514 85.5607 -24.3336 -118.53 8.54043 27.8875 -54.9462 -4.23217 -22.5523 -4.97869 3.32205 -0.954084 -31.6216 -90.1241 -33.6141 74.2718 -18.3013 -16.2454 -82.3952 2.74755 20.1054 -3.80208 -24.1895 2.88667 -19.7377 37.7547 -1.72373 -1.49762 -3.49114 -0.904773 -0.920884 
29.4797 76.3491 -2.11758 -1.9031 -53.5608 -1.74869 -72.6699 69.5519 14.2361 -74.6021 35.3601 -13.8514 82.0469 18.4756 2.15932 7.05984 -16.3631 5.49159 81.0817 65.4363 162.92 -74.7006 -36.0776 13.4856 79.6066 -17.2599 -6.2614 12.6113 2.25454 10.6115 0.669835 9.86573 -90.0983 7.14385 1.29548 -0.251801 -4.52648 1.28314 -0.308597 -27.0668 1.31125 0.14923 -7.05414 1.31125 0.149242 85.453 -24.7238 -118.523 9.13543 26.9773 -52.9986 -4.44741 -27.084 -5.04278 3.73919 -1.17373 -34.3437 -90.2469 -34.1325 74.2144 -18.4536 -15.9924 -81.9653 3.04065 28.9305 -4.09768 -25.0448 3.43891 -21.7946 37.8073 -1.37214 -1.09795 -2.94 -0.757545 -1.27671 
29.5843 82.7031 -1.00386 -1.89983 -50.7463 -2.40688 -97.3914 71.139 38.4436 -55.2583 32.3318 -23.6727 77.1221 14.3046 2.0697 5.1763 -14.9195 2.21736 100.972 68.2492 144.303 -57.019 -31.9894 20.895 76.6364 -13.5579 -3.53735 12.1715 2.25001 10.9568 0.55398 9.46985 -89.9631 7.93432 1.12206 0.0109657 -3.73615 1.12145 -0.0384435 -26.2749 1.06687 0.347729 -6.26228 1.06688 0.347723 84.7975 -25.9372 -119.144 9.92647 25.9958 -51.4584 -4.69316 -31.8969 -5.1387 1.96116 -0.727399 -35.4331 -90.2235 -34.9832 74.5196 -18.9008 -15.2745 -80.5596 3.30009 34.8994 -4.36949 -24.0505 3.72845 -24.1242 38.1477 -1.32217 -1.20182 -3.26365 -0.657484 -1.10906 
29.7498 87.612 0.0214323 -2.50432 -52.3586 -3.08329 -127.279 68.0966 67.0123 -42.3856 25.4262 -27.5716 74.0081 11.1311 0.234408 7.04033 -14.4407 3.13695 127.475 66.1476 120.063 -44.2298 -26.2399 23.6036 73.7352 -10.787 -2.61994 12.1337 2.23715 11.0084 0.50059 9.25888 -89.9414 8.356 1.02489 0.0535242 -3.31453 1.02625 0.00835679 -25.8526 0.961415 0.35911 -5.83998 0.961416 0.359108 84.0854 -27.3665 -119.73 11.2273 24.5311 -49.4502 -4.83092 -34.4141 -5.20043 -0.842783 0.0327989 -36.7651 -90.2501 -35.0228 74.4842 -19.7092 -14.0582 -78.093 3.51712 39.7985 -4.57179 -22.439 3.56912 -24.8355 36.9697 -1.10314 -1.7593 -2.44145 -0.226953 -0.556032 
29.8666 91.4492 1.18059 -3.52826 -57.3032 -3.84931 -148.277 60.968 84.4186 -35.8055 18.7841 -24.6469 71.2696 8.54299 -0.265863 9.66421 -12.6578 3.04847 147.634 59.1496 103.639 -36.5939 -20.1198 20.8627 70.9831 -8.13475 -2.06272 14.83 2.00419 9.4239 0.421176 9.13645 -89.9589 8.6011 0.858638 0.0267199 -3.06955 0.858983 -0.011102 -25.6068 0.810904 0.283545 -5.59418 0.810911 0.283565 84.1337 -28.5296 -118.967 13.4541 22.4144 -48.092 -4.94171 -36.351 -5.25405 -2.36022 0.489675 -38.5357 -90.1926 -36.1518 74.9272 -20.7233 -12.6676 -75.6727 3.65935 41.7591 -4.733 -22.8505 3.64798 -24.8335 35.154 -1.05783 -2.70549 -2.32771 0.204136 -0.314423 
29.8422 94.2405 2.69273 -4.2029 -63.8465 -4.62241 -159.138 51.5029 90.7508 -32.4497 13.3826 -18.6564 70.3109 6.98667 -0.952636 13.0124 -11.6381 4.5708 159.345 50.1572 95.7221 -32.8022 -14.1996 15.8336 69.6696 -6.46762 -1.38944 16.9798 1.54027 8.72092 0.339723 8.92807 -89.9758 9.01774 0.688516 0.000277768 -2.65301 0.687854 -0.0300423 -25.1895 0.656596 0.207184 -5.1769 0.656595 0.207185 84.2661 -29.0858 -118.406 15.4211 20.4674 -44.8168 -4.90103 -35.6542 -5.23511 -3.57607 0.952824 -41.3114 -90.5417 -38.5471 75.0217 -21.7249 -11.432 -72.7208 3.77142 43.5637 -4.84667 -20.3859 3.28487 -25.4919 30.6804 -1.05516 -2.59124 -2.74504 0.0467758 -0.598396 
29.8309 96.2074 4.67753 -6.39848 -70.6739 -7.35021 -164.859 41.1418 92.4732 -29.3016 8.59482 -13.0962 69.8634 6.13399 -1.82338 13.6838 -11.2204 4.58381 165.769 40.6818 92.3011 -30.0063 -10.716 10.7827 68.5921 -5.33791 -0.640989 20.6246 1.23302 6.0759 0.278176 8.68788 -89.9181 9.49787 0.591628 0.117644 -2.17295 0.596221 0.0914723 -24.709 0.528912 0.290017 -4.69631 0.528911 0.29001 84.787 -29.3168 -117.276 17.8055 18.3706 -41.6205 -4.49105 -28.048 -5.05688 -1.472 0.296796 -46.7463 -90.2546 -40.611 76.0774 -21.9841 -11.2405 -70.7074 3.87127 45.069 -4.94788 -22.9282 4.56984 -29.6641 25.8171 -0.875708 -1.35834 -5.06913 -0.286431 -1.71966 
29.8583 97.6381 6.90649 -7.78157 -77.1074 -9.34924 -168.845 31.1646 92.1493 -26.2274 4.91583 -8.29483 69.4938 5.76358 -2.47502 18.4234 -9.51083 6.48657 169.484 31.5607 90.3757 -27.9472 -7.18393 7.08319 68.9408 -5.40629 -0.225115 21.1924 1.39164 5.05864 0.18919 8.39548 -89.8476 10.0823 0.446486 0.265732 -1.58858 0.457758 0.245825 -24.1239 0.345982 0.38764 -4.11129 0.345984 0.387632 85.9669 -29.8357 -114.729 21.5838 15.35 -40.1813 -4.1317 -20.337 -4.95483 -0.703085 -0.00750789 -48.6679 -89.3026 -42.4056 78.1021 -22.4549 -10.7352 -69.2849 3.67118 41.914 -4.74667 -24.1498 5.10085 -30.7536 18.4182 -0.499675 -2.80651 -3.58449 0.348345 0.462419 
29.8006 98.8343 9.34297 -15.3777 -83.2541 -17.0765 -171.682 21.1456 91.9053 -22.7029 2.02673 -4.78647 69.2116 5.43335 -3.43153 18.5115 -9.60124 6.71552 171.378 21.6897 89.5343 -24.3442 -5.00125 4.70026 68.5321 -5.07494 0.336891 22.9513 0.865904 4.63626 0.180528 8.23223 -89.876 10.409 0.416513 0.209948 -1.26186 0.425345 0.191407 -23.7973 0.334164 0.325432 -3.78461 0.334151 0.325414 87.0543 -29.7319 -112.671 24.1651 13.3388 -39.4464 -3.93741 -15.9041 -4.91499 -0.0953111 -0.246704 -50.9101 -88.4988 -44.194 79.8013 -22.5796 -10.5423 -69.5942 3.47597 38.4411 -4.5489 -26.642 6.12655 -32.7228 13.9827 -0.203333 -1.55042 -4.55165 0.227348 -0.501083 
29.6601 99.6795 11.5993 -49.8768 -87.0487 -51.718 -172.715 12.8947 91.66 -18.7387 0.738638 -3.03791 68.1996 4.88997 -3.4109 20.3848 -9.32609 8.14336 172.498 13.7463 89.2831 -20.8814 -4.07312 2.98543 68.3424 -4.90538 0.725244 23.3802 1.04776 3.62673 0.216067 7.95452 -89.8611 10.9643 0.494481 0.228824 -0.706548 0.504078 0.206836 -23.2421 0.40284 0.366858 -3.22944 0.402848 0.366856 87.9751 -29.6001 -110.922 26.9235 11.1382 -39.3433 -3.68104 -9.89914 -4.89413 0.27193 -0.419872 -51.974 -88.325 -44.6813 80.1887 -22.5844 -10.5953 -69.0102 3.25889 33.9993 -4.32719 -23.758 5.39178 -32.8773 9.62483 0.236879 -1.09646 -6.2519 0.499588 -0.661335 
